# xmcd
#
# Track frame offsets: 
#        150
#        11900
#        26966
#        40424
#        56442
#        68253
#        81053
#        94151
#        105466
#        119945
#        129454
#        145088
#        156296
#        169569
#        184661
#        196793
#        210747
#        222853
#        238362
#        253919
#
# Disc length: 3580 seconds
#
# Revision: 0
# Processed by: cddbd v1.5.2PL0 Copyright (c) Steve Scherf et al.
# Submitted via: ExactAudioCopy v1.3
#
DISCID=220dfa14
DTITLE=Leon Everette - 3 Classic Albums On 2 CDs Disc 1
DYEAR=2017
DGENRE=Country
TTITLE0=If I Keep On Going Crazy
TTITLE1=Over
TTITLE2=I Love That Woman
TTITLE3=Its Not Supposed To Be That Way
TTITLE4=This Moment Of Love
TTITLE5=Giving Up Easy
TTITLE6=I Dont Want To Lose
TTITLE7=Champagne Dreams
TTITLE8=Shadows Of My Mind
TTITLE9=Dont Feel Like The Lone Ranger
TTITLE10=Hurricane
TTITLE11=Make Me Stop Loving Her
TTITLE12=Betty Ruth
TTITLE13=Dont Be Angry
TTITLE14=The Feelins Right
TTITLE15=Midnight Rodeo
TTITLE16=Let Me Apologize
TTITLE17=Think It Over
TTITLE18=Running On Love
TTITLE19=If Youre Serious About Cheating
EXTD=
EXTT0=
EXTT1=
EXTT2=
EXTT3=
EXTT4=
EXTT5=
EXTT6=
EXTT7=
EXTT8=
EXTT9=
EXTT10=
EXTT11=
EXTT12=
EXTT13=
EXTT14=
EXTT15=
EXTT16=
EXTT17=
EXTT18=
EXTT19=
PLAYORDER=
